<svg width="1600" height="515" viewBox="0 0 1600 515" fill="none" xmlns="http://www.w3.org/2000/svg">
<rect width="1600" height="515" fill="#6F3FF5"/>
<path d="M1049.92 102.699L1032.45 59.0043M1221.25 398.903L1186.25 353.754L1221.25 398.903ZM1185.66 410.5L1164.71 367.132L1185.66 410.5ZM1209.46 403.66L1179.39 358.716L1209.46 403.66ZM1197.57 407.517L1172.19 363.201L1197.57 407.517ZM1173.79 412.668L1156.96 370.564L1173.79 412.668ZM1127.73 413.619L1124.18 378.614L1127.73 413.619ZM1138.95 414.474L1132.57 377.482L1138.95 414.474ZM1150.39 414.613L1140.85 375.75L1150.39 414.613ZM1162.02 414.013L1148.99 373.43L1162.02 414.013ZM1255.27 379.103L1204.57 336.234L1255.27 379.103ZM1232.88 393.253L1192.76 348.352L1232.88 393.253ZM1244.25 386.626L1198.87 342.478L1244.25 386.626ZM1214.59 322.562L1275.9 361.197L1214.59 322.562ZM1116.77 412.006L1115.74 379.132L1116.77 412.006ZM1265.86 370.599L1209.83 329.57L1265.86 370.599ZM1000.91 316.469L1004.62 314.51L1000.91 316.469ZM1012.63 340.674L1018.76 335.564L1012.63 340.674ZM1004.27 324.687L1008.84 321.861L1004.27 324.687ZM1008.18 332.774L1013.56 328.891L1008.18 332.774ZM1017.63 348.384L1024.4 341.886L1017.63 348.384ZM1106.08 409.668L1107.26 379.102L1106.08 409.668ZM1023.15 355.853L1030.46 347.808L1023.15 355.853ZM995.819 299.742L997.752 299.048L995.819 299.742ZM998.076 308.159L1000.91 306.908L998.076 308.159ZM994.102 291.279L995.153 290.981L994.102 291.279ZM1067.24 393.851L1074.04 373.177L1067.24 393.851ZM1076.31 398.685L1082.17 375.535L1076.31 398.685ZM1085.83 402.965L1090.44 377.303L1085.83 402.965ZM1042.91 376.525L1050.91 362.768L1042.91 376.525ZM1035.8 369.951L1043.75 358.255L1035.8 369.951ZM1058.64 388.501L1066.1 370.232L1058.64 388.501ZM1050.53 382.716L1058.38 366.762L1050.53 382.716ZM1029.22 363.046L1036.92 353.255L1029.22 363.046ZM905.44 228.132L900.023 227.351L905.44 228.132ZM910.249 214.272L902.651 212.631L910.249 214.272ZM901.331 242.432L898.408 242.218L901.331 242.432ZM1095.76 406.643L1098.82 378.496L1095.76 406.643ZM1219.5 72.9218L1180.66 139.708L1219.5 72.9218ZM1228.44 291.802L1308.6 315.096L1228.44 291.802ZM1232.21 80.7827L1187.62 146.443L1232.21 80.7827ZM1225.82 299.807L1301.76 327.764L1225.82 299.807ZM1244.43 89.393L1194.15 153.353L1244.43 89.393ZM1218.87 315.253L1285.31 350.899L1218.87 315.253ZM1222.62 307.657L1293.97 339.733L1222.62 307.657ZM1320.86 198.715L1229.72 224.522L1320.86 198.715ZM1324.07 213.521L1231.41 232.915L1324.07 213.521ZM1232.03 275.215L1319.17 287.77L1232.03 275.215ZM1326.26 243.606L1233.2 249.802L1326.26 243.606ZM1322.72 273.358L1232.94 266.769L1322.72 273.358ZM1325.09 258.627L1233.28 258.312L1325.09 258.627ZM1316.28 184.256L1227.53 216.236L1316.28 184.256ZM1325.88 228.552L1232.56 241.35L1325.88 228.552ZM1267.05 109.015L1205.54 168.045L1267.05 109.015ZM1277.41 119.887L1210.44 175.735L1277.41 119.887ZM1256.06 98.8008L1200.11 160.547L1256.06 98.8008ZM1286.99 131.52L1214.77 183.649L1286.99 131.52ZM1303.65 156.715L1222 199.797L1303.65 156.715ZM1310.52 170.217L1224.96 207.986L1310.52 170.217ZM1295.78 143.817L1218.63 191.696L1295.78 143.817ZM1314.45 301.7L1230.54 283.552L1314.45 301.7ZM1178.74 54.5885L1156.67 121.72L1178.74 54.5885ZM1165.1 49.8567L1147.55 116.765L1165.1 49.8567ZM1120.11 43.8451L1117.74 105.689L1120.11 43.8451ZM1135.01 44.9479L1128.07 108.742L1135.01 44.9479ZM1105.15 43.7861L1107.07 103.321L1105.15 43.7861ZM1060.85 49.8389L1073.37 100.735L1060.85 49.8389ZM1046.5 53.9295L1061.71 101.338L1046.5 53.9295ZM1192.74 59.7889L1165.22 127.262L1192.74 59.7889ZM1090.29 44.7324L1096.08 101.701L1090.29 44.7324ZM1206.33 65.8945L1173.2 133.272L1206.33 65.8945ZM1075.49 46.7577L1084.82 100.853L1075.49 46.7577ZM1149.83 47.0926L1138.08 112.435L1149.83 47.0926ZM948.88 155.162L930.792 143.763L948.88 155.162ZM969.296 137.289L948.474 119.674L969.296 137.289ZM958.865 145.796L939.217 131.41L958.865 145.796ZM939.543 165.41L923.277 156.674L939.543 165.41ZM906.338 198.133L916.122 200.978L906.338 198.133ZM930.939 176.503L916.66 170.085L930.939 176.503ZM923.112 188.385L911.004 183.928L923.112 188.385ZM980.792 88.7063L1002.65 116.875L980.792 88.7063ZM1014.32 111.942L992.917 79.9493L1014.32 111.942ZM1026.14 107.986L1005.58 72.0537L1026.14 107.986ZM1018.78 65.0604L1038.04 104.926L1018.78 65.0604ZM991.209 122.779L969.312 98.274L991.209 122.779ZM980.101 129.605L958.53 108.602L980.101 129.605Z" stroke="white" stroke-width="4" stroke-miterlimit="10" stroke-linecap="round"/>
<path d="M1174.09 413.275L1191.56 456.975M1002.73 117.084L1037.73 162.229L1002.73 117.084ZM1038.32 105.489L1059.27 148.858L1038.32 105.489ZM1014.52 112.332L1044.59 157.273L1014.52 112.332ZM1026.41 108.476L1051.79 152.788L1026.41 108.476ZM1050.19 103.325L1067.02 145.43L1050.19 103.325ZM1096.25 102.375L1099.8 137.381L1096.25 102.375ZM1085.03 101.524L1091.43 138.541L1085.03 101.524ZM1073.6 101.413L1083.14 140.273L1073.6 101.413ZM1061.98 101.996L1075 142.579L1061.98 101.996ZM968.72 136.901L1019.43 179.767L968.72 136.901ZM991.112 122.757L1031.24 167.65L991.112 122.757ZM979.741 129.356L1025.12 173.506L979.741 129.356ZM1009.4 193.414L948.08 154.787L1009.4 193.414ZM1107.22 103.984L1108.26 136.85L1107.22 103.984ZM958.132 145.382L1014.17 186.413L958.132 145.382ZM1223.09 199.519L1219.38 201.473L1223.09 199.519ZM1211.37 175.316L1205.25 180.421L1211.37 175.316ZM1219.74 191.297L1215.17 194.123L1219.74 191.297ZM1215.82 183.211L1210.44 187.097L1215.82 183.211ZM1206.38 167.602L1199.58 174.098L1206.38 167.602ZM1117.89 106.321L1116.72 136.889L1117.89 106.321ZM1200.83 160.132L1193.53 168.176L1200.83 160.132ZM1228.16 216.234L1226.23 216.932L1228.16 216.234ZM1225.91 207.818L1223.08 209.069L1225.91 207.818ZM1229.88 224.701L1228.83 224.994L1229.88 224.701ZM1156.72 122.158L1149.93 142.835L1156.72 122.158ZM1147.65 117.324L1141.8 140.477L1147.65 117.324ZM1138.14 113.045L1133.52 138.704L1138.14 113.045ZM1181.05 139.483L1173.05 153.238L1181.05 139.483ZM1188.16 146.052L1180.22 157.747L1188.16 146.052ZM1165.32 127.504L1157.87 145.77L1165.32 127.504ZM1173.44 133.288L1165.59 149.241L1173.44 133.288ZM1194.75 152.952L1187.05 162.742L1194.75 152.952ZM1318.56 287.835L1323.98 288.617L1318.56 287.835ZM1313.75 301.694L1321.35 303.335L1313.75 301.694ZM1322.67 273.536L1325.59 273.751L1322.67 273.536ZM1128.23 109.337L1125.18 137.487L1128.23 109.337ZM1004.49 443.034L1043.34 376.249L1004.49 443.034ZM995.542 224.194L915.38 200.898L995.542 224.194ZM991.775 435.191L1036.37 369.537L991.775 435.191ZM998.167 216.172L922.214 188.222L998.167 216.172ZM979.566 426.573L1029.85 362.614L979.566 426.573ZM1005.12 200.732L938.676 165.089L1005.12 200.732ZM1001.37 208.328L930.023 176.227L1001.37 208.328ZM903.135 317.26L994.259 291.433L903.135 317.26ZM899.903 302.436L992.568 283.044L899.903 302.436ZM991.949 240.752L904.811 228.193L991.949 240.752ZM897.745 272.319L990.809 266.125L897.745 272.319ZM901.245 242.586L991.033 249.175L901.245 242.586ZM898.886 257.315L990.692 257.626L898.886 257.315ZM907.687 331.742L996.432 299.77L907.687 331.742ZM898.083 287.454L991.406 274.654L898.083 287.454ZM956.915 406.982L1018.43 347.953L956.915 406.982ZM946.6 396.056L1013.58 340.218L946.6 396.056ZM967.954 417.145L1023.88 355.425L967.954 417.145ZM936.98 384.448L1009.2 332.324L936.98 384.448ZM920.328 359.251L1001.97 316.172L920.328 359.251ZM913.452 345.749L999.016 307.985L913.452 345.749ZM928.2 372.166L1005.36 324.292L928.2 372.166ZM909.532 214.296L993.443 232.44L909.532 214.296ZM1045.25 461.388L1067.33 394.258L1045.25 461.388ZM1058.89 466.115L1076.44 399.239L1058.89 466.115ZM1103.88 472.153L1106.25 410.319L1103.88 472.153ZM1088.94 471.039L1095.88 407.255L1088.94 471.039ZM1118.81 472.206L1116.93 412.652L1118.81 472.206ZM1163.15 466.131L1150.64 415.239L1163.15 466.131ZM1177.51 462.04L1162.3 414.64L1177.51 462.04ZM1031.26 456.18L1058.78 388.713L1031.26 456.18ZM1133.7 471.222L1127.92 414.253L1133.7 471.222ZM1017.65 450.06L1050.78 382.689L1017.65 450.06ZM1148.51 469.192L1139.17 415.115L1148.51 469.192ZM1074.16 468.866L1085.91 403.529L1074.16 468.866ZM1275.12 360.817L1293.21 372.211L1275.12 360.817ZM1254.7 378.683L1275.53 396.297L1254.7 378.683ZM1265.14 370.177L1284.78 384.562L1265.14 370.177ZM1284.46 350.569L1300.74 359.301L1284.46 350.569ZM1317.68 317.846L1307.89 315.005L1317.68 317.846ZM1293.08 339.474L1307.35 345.896L1293.08 339.474ZM1300.9 327.598L1313.01 332.054L1300.9 327.598ZM1243.23 427.268L1221.38 399.097L1243.23 427.268ZM1209.72 404.035L1231.12 436.021L1209.72 404.035ZM1197.87 407.984L1218.44 443.919L1197.87 407.984ZM1205.23 450.906L1185.97 411.049L1205.23 450.906ZM1232.8 393.193L1254.7 417.696L1232.8 393.193ZM1243.91 386.372L1265.48 407.374L1243.91 386.372Z" stroke="#02E2AC" stroke-width="4" stroke-miterlimit="10" stroke-linecap="round"/>
<circle cx="1112" cy="258" r="122" fill="white"/>
<mask id="mask0_1001_6" style="mask-type:alpha" maskUnits="userSpaceOnUse" x="0" y="0" width="1600" height="515">
<rect width="1600" height="515" fill="#6F3FF5"/>
</mask>
<g mask="url(#mask0_1001_6)">
<path d="M1128.59 511.177L1190.57 1397.18M1111 511.839V1400V511.839ZM1093.41 511.177L1031.43 1397.18L1093.41 511.177ZM1075.84 509.33L952.306 1388.92L1075.84 509.33ZM1058.5 506.328L873.974 1375.09L1058.5 506.328ZM1041.5 502.057L796.881 1355.82L1041.5 502.057ZM1024.79 496.616L721.196 1331.23L1024.79 496.616ZM1008.44 490.033L647.441 1301.4L1008.44 490.033ZM992.677 482.294L575.94 1266.51L992.677 482.294ZM977.394 473.498L507.06 1226.7L977.394 473.498ZM962.786 463.645L441.094 1182.15L962.786 463.645ZM948.926 452.805L378.44 1133.18L948.926 452.805ZM935.868 441.063L319.363 1079.91L935.868 441.063ZM264.103 1022.65L923.655 428.349L264.103 1022.65ZM212.9 961.671L912.302 414.859L212.9 961.671ZM901.963 400.608L166.148 897.266L901.963 400.608ZM892.666 385.723L123.989 829.746L892.666 385.723ZM884.369 370.118L86.6466 759.464L884.369 370.118ZM877.171 354.035L54.2486 686.7L877.171 354.035ZM871.185 337.472L27.0766 611.935L871.185 337.472ZM866.339 320.543L5.15862 535.422L866.339 320.543ZM862.677 303.317L-11.3784 457.612L862.677 303.317ZM860.268 285.881L-22.4501 378.675L860.268 285.881ZM859 268.317L-28 299.328L859 268.317ZM859 250.711L-28 219.7L859 250.711ZM860.268 233.133L-22.4501 140.297L860.268 233.133ZM862.677 215.683L-11.3784 61.5147L862.677 215.683ZM866.339 198.514L5.15862 -16.408L866.339 198.514ZM871.185 181.528L27.0766 -92.9352L871.185 181.528ZM877.171 164.979L54.2908 -167.729L877.171 164.979ZM884.369 148.91L86.6466 -240.464L884.369 148.91ZM892.666 133.404L123.989 -310.747L892.666 133.404ZM901.949 118.406L166.148 -378.28L901.949 118.406ZM912.302 104.155L212.9 -442.657L912.302 104.155ZM923.655 90.6652L264.033 -503.636L923.655 90.6652ZM935.84 77.9929L319.363 -560.908L935.84 77.9929ZM949.01 66.2086L378.524 -614.163L949.01 66.2086ZM962.899 55.397L441.094 -663.175L962.899 55.397ZM977.379 45.5157L507.045 -707.69L977.379 45.5157ZM992.677 36.7057L575.94 -747.497L992.677 36.7057ZM1008.38 28.9952L647.441 -782.399L1008.38 28.9952ZM721.196 -812.212L1024.75 22.3983L721.196 -812.212ZM1041.5 16.9572L796.881 -836.809L1041.5 16.9572ZM1058.6 12.6861L874.072 -856.064L1058.6 12.6861ZM1075.91 9.6273L952.377 -869.892L1075.91 9.6273ZM1093.41 7.79484L1031.43 -878.209L1093.41 7.79484ZM1111 7.17461V-881V7.17461ZM1128.59 7.79484L1190.57 -878.209L1128.59 7.79484ZM1269.68 -869.892L1146.16 9.69777L1269.68 -869.892ZM1163.5 12.7566L1347.96 -856.135L1163.5 12.7566ZM1180.5 16.9572L1425.12 -836.809L1180.5 16.9572ZM1197.23 22.3983L1500.8 -812.212L1197.23 22.3983ZM1213.56 28.9952L1574.56 -782.399L1213.56 28.9952ZM1229.32 36.7057L1646.06 -747.497L1229.32 36.7057ZM1244.61 45.5157L1714.94 -707.69L1244.61 45.5157ZM1259.21 55.3688L1780.89 -663.175L1259.21 55.3688ZM1273.07 66.2086L1843.56 -614.163L1273.07 66.2086ZM1286.15 77.9506L1902.64 -560.908L1286.15 77.9506ZM1957.9 -503.636L1298.34 90.6652L1957.9 -503.636ZM1309.61 104.155L2009 -442.657L1309.61 104.155ZM2055.77 -378.252L1320.04 118.406L2055.77 -378.252ZM1329.33 133.404L2097.98 -310.62L1329.33 133.404ZM1337.63 148.91L2135.35 -240.436L1337.63 148.91ZM1344.83 164.979L2167.75 -167.686L1344.83 164.979ZM1350.8 181.528L2194.91 -92.9211L1350.8 181.528ZM1355.66 198.457L2216.84 -16.408L1355.66 198.457ZM1359.32 215.683L2233.38 61.5147L1359.32 215.683ZM1361.73 233.133L2244.42 140.297L1361.73 233.133ZM1363 250.697L2250 219.686L1363 250.697ZM1363 268.317L2250 299.328L1363 268.317ZM1361.73 285.881L2244.45 378.675L1361.73 285.881ZM2233.38 457.612L1359.32 303.317L2233.38 457.612ZM1355.66 320.543L2216.84 535.422L1355.66 320.543ZM2194.91 611.935L1350.8 337.486L2194.91 611.935ZM1344.83 354.035L2167.75 686.7L1344.83 354.035ZM1337.63 370.118L2135.35 759.464L1337.63 370.118ZM1329.33 385.723L2097.97 829.746L1329.33 385.723ZM1320.04 400.608L2055.85 897.266L1320.04 400.608ZM2009.09 961.671L1309.7 414.859L2009.09 961.671ZM1298.43 428.349L1958 1022.65L1298.43 428.349ZM1286.16 441.021L1902.64 1079.91L1286.16 441.021ZM1272.99 452.805L1843.48 1133.18L1272.99 452.805ZM1780.79 1182.19L1259.21 463.645L1780.79 1182.19ZM1244.62 473.512L1714.94 1226.73L1244.62 473.512ZM1229.32 482.294L1646 1266.51L1229.32 482.294ZM1574.5 1301.4L1213.56 490.033L1574.5 1301.4ZM1197.23 496.63L1500.79 1331.24L1197.23 496.63ZM1180.5 502.057L1425.12 1355.82L1180.5 502.057ZM1163.43 506.314L1347.96 1375.08L1163.43 506.314ZM1269.61 1388.91L1146.09 509.316L1269.61 1388.91Z" stroke="#AB8CFF" stroke-miterlimit="10"/>
</g>
<path d="M1119.53 278.115C1129.81 273.108 1134.1 260.71 1129.09 250.423C1124.08 240.135 1111.68 235.854 1101.4 240.86C1091.11 245.867 1086.83 258.265 1091.83 268.552C1096.84 278.84 1109.24 283.121 1119.53 278.115Z" fill="#02E2AC"/>
<path d="M1124.47 334H1133.78V315.701L1146.72 328.636L1153.3 322.054L1114.03 282.774H1127.18L1159.87 315.467L1166.46 308.879L1140.35 282.774H1153.5L1173.03 302.297L1179.61 295.709L1166.67 282.774H1184.97V273.47H1129.46L1138.77 264.155H1185V254.845H1148.08L1157.39 245.513H1185V236.22H1166.7L1179.64 223.279L1173.06 216.697L1133.78 255.972V242.819L1166.47 210.127L1159.89 203.545L1133.78 229.65V216.497L1153.3 196.974L1146.72 190.392L1133.78 203.328V185.029H1124.47V240.572L1115.16 231.217V185H1105.85V221.918L1096.53 212.609V185H1087.22V203.299L1074.28 190.364L1067.7 196.946L1106.97 236.226H1093.82L1061.13 203.534L1054.55 210.115L1080.65 236.226H1067.5L1047.95 216.697L1041.36 223.279L1054.3 236.22H1036V245.513H1091.54L1082.23 254.828H1036.01V264.155H1072.92L1063.61 273.47H1036.01V282.78H1054.3L1041.37 295.715L1047.95 302.303L1087.23 263.023V276.175L1054.54 308.862L1061.12 315.449L1087.23 289.345V302.497L1067.71 322.014L1074.29 328.602L1087.23 315.667V333.966H1096.54V278.457L1105.85 287.766V334H1115.16V297.082L1124.48 306.391L1124.47 334ZM1096.53 265.321L1090.73 259.517L1096.51 253.736V245.513H1104.68L1110.5 239.726L1116.26 245.513H1124.47V253.684L1130.28 259.489L1124.5 265.27V273.476H1116.32L1110.5 279.252L1104.72 273.47H1096.53V265.321Z" fill="#0E0333"/>
</svg>
